<svg data-v-423bf9ae="" xmlns="http://www.w3.org/2000/svg" viewBox="0 0 488 90" class="iconLeft"><!----><!----><!----><g data-v-423bf9ae="" id="0bba40f7-69b6-4bb7-98bd-7cc25ec824b3" fill="#4299E1" transform="matrix(4.9099836349487305,0,0,4.9099836349487305,147.172607421875,6.4566264152526855)"><path d="M5.87 10.75L5.87 10.75L5.87 10.75Q5.94 10.72 5.99 10.75L5.99 10.75L5.99 10.75Q6.03 10.77 6.03 10.85L6.03 10.85L6.06 11.40L6.06 11.40Q6.08 11.58 5.91 11.65L5.91 11.65L5.91 11.65Q5.56 11.80 5.19 11.87L5.19 11.87L5.19 11.87Q4.83 11.94 4.45 11.94L4.45 11.94L4.45 11.94Q2.76 11.94 1.69 10.46L1.69 10.46L1.69 10.46Q1.22 9.73 0.99 8.83L0.99 8.83L0.99 8.83Q0.76 7.92 0.76 7.00L0.76 7.00L0.76 7.00Q0.76 6.16 0.99 5.26L0.99 5.26L0.99 5.26Q1.22 4.35 1.69 3.63L1.69 3.63L1.69 3.63Q2.76 2.14 4.45 2.14L4.45 2.14L4.45 2.14Q4.83 2.14 5.19 2.21L5.19 2.21L5.19 2.21Q5.56 2.28 5.91 2.44L5.91 2.44L5.91 2.44Q6.08 2.51 6.06 2.69L6.06 2.69L6.03 3.23L6.03 3.23Q6.03 3.32 5.99 3.34L5.99 3.34L5.99 3.34Q5.94 3.36 5.87 3.33L5.87 3.33L5.87 3.33Q5.54 3.19 5.21 3.11L5.21 3.11L5.21 3.11Q4.89 3.02 4.45 3.02L4.45 3.02L4.45 3.02Q3.25 3.02 2.45 4.27L2.45 4.27L2.45 4.27Q2.09 4.87 1.91 5.62L1.91 5.62L1.91 5.62Q1.74 6.37 1.74 7.00L1.74 7.00L1.74 7.00Q1.74 7.71 1.91 8.46L1.91 8.46L1.91 8.46Q2.09 9.21 2.45 9.81L2.45 9.81L2.45 9.81Q3.25 11.06 4.45 11.06L4.45 11.06L4.45 11.06Q4.93 11.06 5.24 10.98L5.24 10.98L5.24 10.98Q5.54 10.89 5.87 10.75ZM12.45 8.29L12.45 8.29L12.45 8.29Q12.45 7.74 12.32 7.21L12.32 7.21L12.32 7.21Q12.19 6.68 11.93 6.24L11.93 6.24L11.93 6.24Q11.40 5.40 10.49 5.40L10.49 5.40L10.49 5.40Q9.53 5.40 9.04 6.24L9.04 6.24L9.04 6.24Q8.78 6.68 8.66 7.21L8.66 7.21L8.66 7.21Q8.54 7.74 8.54 8.29L8.54 8.29L8.54 8.29Q8.54 8.89 8.65 9.42L8.65 9.42L8.65 9.42Q8.76 9.95 9.04 10.33L9.04 10.33L9.04 10.33Q9.66 11.19 10.49 11.19L10.49 11.19L10.49 11.19Q11.45 11.19 11.93 10.33L11.93 10.33L11.93 10.33Q12.21 9.95 12.33 9.42L12.33 9.42L12.33 9.42Q12.45 8.89 12.45 8.29ZM13.41 8.29L13.41 8.29L13.41 8.29Q13.41 9.06 13.24 9.74L13.24 9.74L13.24 9.74Q13.06 10.42 12.70 10.88L12.70 10.88L12.70 10.88Q12.28 11.42 11.73 11.73L11.73 11.73L11.73 11.73Q11.19 12.03 10.49 12.03L10.49 12.03L10.49 12.03Q9.79 12.03 9.24 11.73L9.24 11.73L9.24 11.73Q8.69 11.42 8.27 10.88L8.27 10.88L8.27 10.88Q7.94 10.37 7.76 9.72L7.76 9.72L7.76 9.72Q7.59 9.06 7.59 8.29L7.59 8.29L7.59 8.29Q7.59 6.71 8.27 5.70L8.27 5.70L8.27 5.70Q9.07 4.56 10.49 4.56L10.49 4.56L10.49 4.56Q11.20 4.56 11.74 4.84L11.74 4.84L11.74 4.84Q12.28 5.11 12.70 5.70L12.70 5.70L12.70 5.70Q13.41 6.72 13.41 8.29ZM14.59 11.61L14.59 6.57L14.59 6.57Q14.59 5.98 14.57 5.64L14.57 5.64L14.57 5.64Q14.56 5.29 14.53 4.98L14.53 4.98L14.53 4.98Q14.53 4.79 14.73 4.79L14.73 4.79L15.25 4.79L15.25 4.79Q15.44 4.79 15.44 4.98L15.44 4.98L15.43 5.59L15.43 5.59Q15.53 5.14 15.82 4.88L15.82 4.88L15.82 4.88Q16.11 4.62 16.41 4.62L16.41 4.62L16.41 4.62Q16.93 4.62 17.24 5.04L17.24 5.04L17.24 5.04Q17.56 5.46 17.64 6.03L17.64 6.03L17.64 6.03Q17.68 5.57 17.95 5.12L17.95 5.12L17.95 5.12Q18.21 4.68 18.82 4.62L18.82 4.62L18.82 4.62Q19.35 4.62 19.66 4.81L19.66 4.81L19.66 4.81Q19.96 5.00 20.15 5.35L20.15 5.35L20.15 5.35Q20.33 5.70 20.40 6.16L20.40 6.16L20.40 6.16Q20.47 6.62 20.47 7.14L20.47 7.14L20.47 11.61L20.47 11.61Q20.47 11.80 20.27 11.80L20.27 11.80L19.74 11.80L19.74 11.80Q19.54 11.80 19.54 11.62L19.54 11.62L19.54 7.34L19.54 7.34Q19.54 5.49 18.80 5.49L18.80 5.49L18.80 5.49Q18.52 5.49 18.35 5.71L18.35 5.71L18.35 5.71Q18.19 5.94 18.11 6.27L18.11 6.27L18.11 6.27Q18.03 6.61 18.00 7.11L18.00 7.11L18.00 7.11Q17.96 7.62 17.98 8.18L17.98 8.18L17.98 11.61L17.98 11.61Q17.98 11.80 17.78 11.80L17.78 11.80L17.28 11.80L17.28 11.80Q17.08 11.80 17.08 11.61L17.08 11.61L17.08 7.34L17.08 7.34Q17.04 5.49 16.30 5.49L16.30 5.49L16.30 5.49Q15.90 5.49 15.70 6.05L15.70 6.05L15.70 6.05Q15.50 6.61 15.51 7.66L15.51 7.66L15.51 11.61L15.51 11.61Q15.51 11.80 15.32 11.80L15.32 11.80L14.78 11.80L14.78 11.80Q14.59 11.80 14.59 11.61L14.59 11.61ZM21.59 11.61L21.59 6.57L21.59 6.57Q21.59 5.98 21.57 5.64L21.57 5.64L21.57 5.64Q21.56 5.29 21.53 4.98L21.53 4.98L21.53 4.98Q21.53 4.79 21.73 4.79L21.73 4.79L22.25 4.79L22.25 4.79Q22.44 4.79 22.44 4.98L22.44 4.98L22.43 5.59L22.43 5.59Q22.53 5.14 22.82 4.88L22.82 4.88L22.82 4.88Q23.11 4.62 23.41 4.62L23.41 4.62L23.41 4.62Q23.93 4.62 24.24 5.04L24.24 5.04L24.24 5.04Q24.56 5.46 24.64 6.03L24.64 6.03L24.64 6.03Q24.68 5.57 24.95 5.12L24.95 5.12L24.95 5.12Q25.21 4.68 25.82 4.62L25.82 4.62L25.82 4.62Q26.35 4.62 26.66 4.81L26.66 4.81L26.66 4.81Q26.96 5.00 27.15 5.35L27.15 5.35L27.15 5.35Q27.33 5.70 27.40 6.16L27.40 6.16L27.40 6.16Q27.47 6.62 27.47 7.14L27.47 7.14L27.47 11.61L27.47 11.61Q27.47 11.80 27.27 11.80L27.27 11.80L26.74 11.80L26.74 11.80Q26.54 11.80 26.54 11.62L26.54 11.62L26.54 7.34L26.54 7.34Q26.54 5.49 25.80 5.49L25.80 5.49L25.80 5.49Q25.52 5.49 25.35 5.71L25.35 5.71L25.35 5.71Q25.19 5.94 25.11 6.27L25.11 6.27L25.11 6.27Q25.03 6.61 25.00 7.11L25.00 7.11L25.00 7.11Q24.96 7.62 24.98 8.18L24.98 8.18L24.98 11.61L24.98 11.61Q24.98 11.80 24.78 11.80L24.78 11.80L24.28 11.80L24.28 11.80Q24.08 11.80 24.08 11.61L24.08 11.61L24.08 7.34L24.08 7.34Q24.04 5.49 23.30 5.49L23.30 5.49L23.30 5.49Q22.90 5.49 22.70 6.05L22.70 6.05L22.70 6.05Q22.50 6.61 22.51 7.66L22.51 7.66L22.51 11.61L22.51 11.61Q22.51 11.80 22.32 11.80L22.32 11.80L21.78 11.80L21.78 11.80Q21.59 11.80 21.59 11.61L21.59 11.61ZM34.16 11.61L34.16 11.61L34.16 11.61Q34.16 11.80 33.96 11.80L33.96 11.80L33.46 11.80L33.46 11.80Q33.26 11.80 33.26 11.61L33.26 11.61L33.26 10.44L33.26 10.44Q32.90 11.28 32.37 11.66L32.37 11.66L32.37 11.66Q31.84 12.03 31.11 12.03L31.11 12.03L31.11 12.03Q28.84 12.03 28.84 9.10L28.84 9.10L28.84 4.98L28.84 4.98Q28.84 4.79 29.04 4.79L29.04 4.79L29.60 4.79L29.60 4.79Q29.79 4.79 29.79 4.98L29.79 4.98L29.79 8.85L29.79 8.85Q29.79 11.23 31.26 11.23L31.26 11.23L31.26 11.23Q31.60 11.23 31.95 11.00L31.95 11.00L31.95 11.00Q32.30 10.77 32.59 10.37L32.59 10.37L32.59 10.37Q32.89 9.97 33.04 9.44L33.04 9.44L33.04 9.44Q33.19 8.90 33.18 8.32L33.18 8.32L33.18 4.98L33.18 4.98Q33.18 4.79 33.38 4.79L33.38 4.79L33.94 4.79L33.94 4.79Q34.13 4.79 34.13 4.98L34.13 4.98L34.13 10.05L34.13 10.05Q34.13 10.51 34.14 10.88L34.14 10.88L34.14 10.88Q34.15 11.24 34.16 11.61ZM41.12 7.53L41.12 11.61L41.12 11.61Q41.12 11.80 40.92 11.80L40.92 11.80L40.36 11.80L40.36 11.80Q40.17 11.80 40.17 11.61L40.17 11.61L40.17 7.76L40.17 7.76Q40.17 6.47 39.82 5.93L39.82 5.93L39.82 5.93Q39.47 5.39 38.63 5.39L38.63 5.39L38.63 5.39Q37.88 5.39 37.38 5.99L37.38 5.99L37.38 5.99Q36.88 6.58 36.88 7.78L36.88 7.78L36.88 11.61L36.88 11.61Q36.88 11.80 36.68 11.80L36.68 11.80L36.12 11.80L36.12 11.80Q35.92 11.80 35.92 11.61L35.92 11.61L35.92 6.57L35.92 6.57Q35.92 5.96 35.92 5.63L35.92 5.63L35.92 5.63Q35.91 5.29 35.88 4.98L35.88 4.98L35.88 4.98Q35.87 4.89 35.93 4.84L35.93 4.84L35.93 4.84Q35.99 4.79 36.08 4.79L36.08 4.79L36.58 4.79L36.58 4.79Q36.78 4.79 36.78 4.98L36.78 4.98L36.78 5.77L36.78 5.77Q37.11 5.17 37.60 4.88L37.60 4.88L37.60 4.88Q38.08 4.59 38.71 4.59L38.71 4.59L38.71 4.59Q39.94 4.59 40.53 5.36L40.53 5.36L40.53 5.36Q41.12 6.13 41.12 7.53L41.12 7.53ZM46.14 10.93L47.81 10.93L47.81 10.93Q48.01 10.93 48.01 11.13L48.01 11.13L48.01 11.61L48.01 11.61Q48.01 11.80 47.81 11.80L47.81 11.80L43.34 11.80L43.34 11.80Q43.15 11.80 43.15 11.61L43.15 11.61L43.15 11.13L43.15 11.13Q43.15 10.93 43.34 10.93L43.34 10.93L45.14 10.93L45.14 5.66L43.50 5.66L43.50 5.66Q43.30 5.66 43.30 5.46L43.30 5.46L43.30 4.98L43.30 4.98Q43.30 4.79 43.50 4.79L43.50 4.79L45.95 4.79L45.95 4.79Q46.14 4.79 46.14 4.98L46.14 4.98L46.14 10.93ZM44.70 2.52L44.70 2.52L44.70 2.52Q44.70 2.20 44.93 1.97L44.93 1.97L44.93 1.97Q45.16 1.74 45.49 1.74L45.49 1.74L45.49 1.74Q45.81 1.74 46.04 1.97L46.04 1.97L46.04 1.97Q46.27 2.20 46.27 2.52L46.27 2.52L46.27 2.52Q46.27 2.84 46.04 3.07L46.04 3.07L46.04 3.07Q45.81 3.30 45.49 3.30L45.49 3.30L45.49 3.30Q45.16 3.30 44.93 3.07L44.93 3.07L44.93 3.07Q44.70 2.84 44.70 2.52ZM54.98 11.79L54.98 11.79L54.98 11.79Q54.39 12.03 53.61 12.03L53.61 12.03L53.61 12.03Q52.33 12.03 51.97 11.28L51.97 11.28L51.97 11.28Q51.73 10.78 51.73 9.51L51.73 9.51L51.73 5.92L49.91 5.92L49.91 5.92Q49.71 5.92 49.71 5.73L49.71 5.73L49.71 5.31L49.71 5.31Q49.71 5.11 49.91 5.11L49.91 5.11L51.73 5.11L51.73 3.14L51.73 3.14Q51.73 2.93 51.91 2.93L51.91 2.93L52.50 2.93L52.50 2.93Q52.68 2.93 52.68 3.14L52.68 3.14L52.68 5.11L54.94 5.11L54.94 5.11Q55.13 5.11 55.13 5.31L55.13 5.31L55.13 5.73L55.13 5.73Q55.13 5.92 54.94 5.92L54.94 5.92L52.68 5.92L52.68 10.14L52.68 10.14Q52.68 11.19 53.83 11.19L53.83 11.19L53.83 11.19Q54.40 11.19 54.92 10.95L54.92 10.95L54.92 10.95Q54.99 10.92 55.05 10.95L55.05 10.95L55.05 10.95Q55.12 10.98 55.12 11.06L55.12 11.06L55.15 11.51L55.15 11.51Q55.17 11.70 54.98 11.79ZM61.98 11.79L61.98 11.79L61.98 11.79Q61.39 12.03 60.61 12.03L60.61 12.03L60.61 12.03Q59.33 12.03 58.97 11.28L58.97 11.28L58.97 11.28Q58.73 10.78 58.73 9.51L58.73 9.51L58.73 5.92L56.91 5.92L56.91 5.92Q56.71 5.92 56.71 5.73L56.71 5.73L56.71 5.31L56.71 5.31Q56.71 5.11 56.91 5.11L56.91 5.11L58.73 5.11L58.73 3.14L58.73 3.14Q58.73 2.93 58.91 2.93L58.91 2.93L59.50 2.93L59.50 2.93Q59.68 2.93 59.68 3.14L59.68 3.14L59.68 5.11L61.94 5.11L61.94 5.11Q62.13 5.11 62.13 5.31L62.13 5.31L62.13 5.73L62.13 5.73Q62.13 5.92 61.94 5.92L61.94 5.92L59.68 5.92L59.68 10.14L59.68 10.14Q59.68 11.19 60.83 11.19L60.83 11.19L60.83 11.19Q61.40 11.19 61.92 10.95L61.92 10.95L61.92 10.95Q61.99 10.92 62.05 10.95L62.05 10.95L62.05 10.95Q62.12 10.98 62.12 11.06L62.12 11.06L62.15 11.51L62.15 11.51Q62.17 11.70 61.98 11.79ZM63.80 13.87L63.80 13.87L63.80 13.87Q63.63 13.83 63.66 13.66L63.66 13.66L63.70 13.15L63.70 13.15Q63.70 12.98 63.87 13.05L63.87 13.05L63.87 13.05Q64.11 13.13 64.39 13.13L64.39 13.13L64.39 13.13Q64.68 13.13 64.92 13.06L64.92 13.06L64.92 13.06Q65.17 12.99 65.30 12.84L65.30 12.84L65.30 12.84Q65.45 12.64 65.64 12.19L65.64 12.19L65.64 12.19Q65.83 11.75 66.01 11.17L66.01 11.17L66.01 11.17Q65.38 9.46 63.71 4.98L63.71 4.98L63.71 4.98Q63.69 4.91 63.71 4.85L63.71 4.85L63.71 4.85Q63.74 4.79 63.83 4.79L63.83 4.79L64.43 4.79L64.43 4.79Q64.62 4.79 64.71 4.98L64.71 4.98L66.47 9.91L68.29 4.98L68.29 4.98Q68.36 4.79 68.57 4.79L68.57 4.79L69.17 4.79L69.17 4.79Q69.26 4.79 69.29 4.85L69.29 4.85L69.29 4.85Q69.31 4.91 69.29 4.98L69.29 4.98L66.51 12.24L66.51 12.24Q66.36 12.64 66.17 12.96L66.17 12.96L66.17 12.96Q65.98 13.29 65.79 13.48L65.79 13.48L65.79 13.48Q65.53 13.72 65.23 13.84L65.23 13.84L65.23 13.84Q64.92 13.96 64.58 13.96L64.58 13.96L64.58 13.96Q64.37 13.96 64.20 13.94L64.20 13.94L64.20 13.94Q64.02 13.93 63.80 13.87Z"></path></g><!----><g data-v-423bf9ae="" id="49ea94d3-7889-402f-8498-3336c8ea25d8" transform="matrix(1.3676482439041138,0,0,1.3676482439041138,-2.1876134872436523,-19.51435661315918)" stroke="none" fill="#4299E1"><path d="M42.966 51.018h.606c-.168-.14-.33-.268-.476-.422-4.806-4.341-8.473-12.778-8.473-19.599 0-9.65 7.9-15.998 15.371-15.998 7.465 0 14.968 6.867 14.968 16.513 0 6.818-4.056 14.999-9.074 19.191 1.031 3.933 6.678 5.22 18.324 8.414 12.939 3.552 11.579 15.705 10.673 18.245-1.497 4.195-68.574 4.971-69.839 0-.281-2.057-3.246-14.693 9.695-18.245 11.326-3.109 16.968-4.414 18.225-8.099z"></path><path d="M43.572 51.018h-.606c.05-.14.088-.275.129-.422.145.154.31.283.477.422zM24.331 57.623l2.164-.592c4.106-1.121 7.357-2.015 9.796-2.903-1.913-.847-3.007-1.78-3.362-3.132 1.643-1.373 3.129-3.331 4.302-5.512-2.513-4.452-4.157-9.818-4.157-14.486 0-1.709.289-3.44.814-5.118-1.656-1.024-3.512-1.602-5.369-1.602-5.591 0-11.503 4.75-11.503 11.972 0 5.104 2.744 11.418 6.34 14.667.109.115.231.211.356.316h-.454c-.94 2.758-5.162 3.734-13.638 6.061-9.684 2.658-7.465 12.114-7.255 13.653.272 1.069 4.622 1.781 10.697 2.181-.251-10.054 5.789-14.002 11.269-15.505zM75.385 57.623l-2.164-.592c-4.106-1.121-7.357-2.015-9.796-2.903 1.913-.847 3.007-1.78 3.362-3.132-1.643-1.373-3.129-3.331-4.302-5.512 2.513-4.452 4.157-9.818 4.157-14.486 0-1.709-.289-3.44-.814-5.118 1.656-1.024 3.512-1.602 5.369-1.602 5.591 0 11.503 4.75 11.503 11.972 0 5.104-2.744 11.418-6.34 14.667-.109.115-.231.211-.356.316h.454c.94 2.758 5.162 3.734 13.638 6.061 9.684 2.658 7.465 12.114 7.255 13.653-.272 1.069-4.622 1.781-10.697 2.181.251-10.054-5.79-14.002-11.269-15.505z"></path></g><!----></svg>