<?xml version="1.0" encoding="UTF-8" standalone="no"?>
<!-- Created with Inkscape (http://www.inkscape.org/) -->

<svg
   width="34.635071mm"
   height="23.812496mm"
   viewBox="0 0 34.635071 23.812496"
   version="1.1"
   id="svg205"
   inkscape:version="1.1.2 (0a00cf5339, 2022-02-04)"
   sodipodi:docname="home-icon-cropped.svg"
   xmlns:inkscape="http://www.inkscape.org/namespaces/inkscape"
   xmlns:sodipodi="http://sodipodi.sourceforge.net/DTD/sodipodi-0.dtd"
   xmlns="http://www.w3.org/2000/svg"
   xmlns:svg="http://www.w3.org/2000/svg">
  <sodipodi:namedview
     id="namedview207"
     pagecolor="#505050"
     bordercolor="#ffffff"
     borderopacity="1"
     inkscape:pageshadow="0"
     inkscape:pageopacity="0"
     inkscape:pagecheckerboard="1"
     inkscape:document-units="mm"
     showgrid="false"
     inkscape:zoom="0.74742565"
     inkscape:cx="304.3781"
     inkscape:cy="12.710294"
     inkscape:window-width="1920"
     inkscape:window-height="1048"
     inkscape:window-x="1366"
     inkscape:window-y="32"
     inkscape:window-maximized="1"
     inkscape:current-layer="layer1" />
  <defs
     id="defs202" />
  <g
     inkscape:label="Layer 1"
     inkscape:groupmode="layer"
     id="layer1"
     transform="translate(-24.453621,-145.26658)">
    <g
       data-v-423bf9ae=""
       id="49ea94d3-7889-402f-8498-3336c8ea25d8"
       transform="matrix(0.36185692,0,0,0.36185692,23.729694,139.83909)"
       stroke="none"
       fill="#4299e1">
      <path
         d="m 42.966,51.018 h 0.606 c -0.168,-0.14 -0.33,-0.268 -0.476,-0.422 -4.806,-4.341 -8.473,-12.778 -8.473,-19.599 0,-9.65 7.9,-15.998 15.371,-15.998 7.465,0 14.968,6.867 14.968,16.513 0,6.818 -4.056,14.999 -9.074,19.191 1.031,3.933 6.678,5.22 18.324,8.414 12.939,3.552 11.579,15.705 10.673,18.245 -1.497,4.195 -68.574,4.971 -69.839,0 C 14.765,75.305 11.8,62.669 24.741,59.117 36.067,56.008 41.709,54.703 42.966,51.018 Z"
         id="path86" />
      <path
         d="m 43.572,51.018 h -0.606 c 0.05,-0.14 0.088,-0.275 0.129,-0.422 0.145,0.154 0.31,0.283 0.477,0.422 z m -19.241,6.605 2.164,-0.592 c 4.106,-1.121 7.357,-2.015 9.796,-2.903 -1.913,-0.847 -3.007,-1.78 -3.362,-3.132 1.643,-1.373 3.129,-3.331 4.302,-5.512 -2.513,-4.452 -4.157,-9.818 -4.157,-14.486 0,-1.709 0.289,-3.44 0.814,-5.118 -1.656,-1.024 -3.512,-1.602 -5.369,-1.602 -5.591,0 -11.503,4.75 -11.503,11.972 0,5.104 2.744,11.418 6.34,14.667 0.109,0.115 0.231,0.211 0.356,0.316 h -0.454 c -0.94,2.758 -5.162,3.734 -13.638,6.061 -9.684,2.658 -7.465,12.114 -7.255,13.653 0.272,1.069 4.622,1.781 10.697,2.181 -0.251,-10.054 5.789,-14.002 11.269,-15.505 z m 51.054,0 -2.164,-0.592 c -4.106,-1.121 -7.357,-2.015 -9.796,-2.903 1.913,-0.847 3.007,-1.78 3.362,-3.132 -1.643,-1.373 -3.129,-3.331 -4.302,-5.512 2.513,-4.452 4.157,-9.818 4.157,-14.486 0,-1.709 -0.289,-3.44 -0.814,-5.118 1.656,-1.024 3.512,-1.602 5.369,-1.602 5.591,0 11.503,4.75 11.503,11.972 0,5.104 -2.744,11.418 -6.34,14.667 -0.109,0.115 -0.231,0.211 -0.356,0.316 h 0.454 c 0.94,2.758 5.162,3.734 13.638,6.061 9.684,2.658 7.465,12.114 7.255,13.653 -0.272,1.069 -4.622,1.781 -10.697,2.181 0.251,-10.054 -5.79,-14.002 -11.269,-15.505 z"
         id="path88" />
    </g>
  </g>
</svg>
